<?xml version="1.0" encoding="utf-8"?>
<!-- Generator: Adobe Illustrator 24.0.1, SVG Export Plug-In . SVG Version: 6.00 Build 0)  -->
<svg version="1.1" id="Capa_1" xmlns="http://www.w3.org/2000/svg" xmlns:xlink="http://www.w3.org/1999/xlink" x="0px" y="0px"
	 viewBox="0 0 2200 423" style="enable-background:new 0 0 2200 423;" xml:space="preserve">
<style type="text/css">
	.st0{fill:#FFFFFF;}
	.st1{fill:#888C8B;}
	.st2{fill:#2AA84C;}
</style>
<rect class="st0" width="2200" height="423"/>
<rect x="1300.5" y="102.4" class="st1" width="3.2" height="220.3"/>
<g>
	<path class="st2" d="M446.5,228.5c1.6,2.4,3.7,3.4,6.8,3.5c4.1,0.1,6.8-4,6.8-4l68.7-88c5.7-5.9,11.3-1.1,11.3-1.1
		c5.4,5.7,1.4,10.9,1.4,10.9l-15.4,19.6v0.1c-1.3,1.4-2.2,3.2-2.2,5.3c0,1.9,0.7,3.6,1.8,4.9v0l15.5,19.6l48.7-61.9l-19.4-24.8
		l-3.6-4.7c-3.1-4.5-10.2-5.6-10.2-5.6h-29.2c-7.8,0-12,5.3-12,5.3l-81.7,104.8"/>
	<path class="st2" d="M443,174.8l-19.5-25c-4-6.4,1.8-11,1.8-11c7.3-4.3,11.5,2.3,11.5,2.3l16.1,20.8l19.1-24.7l-22-28.4
		c-5.3-7.5-13.3-6.4-13.3-6.4h-26.4c-8.4,0-12,5.2-12,5.2l-23.3,29.6l48.7,62.2"/>
	<path class="st2" d="M518.3,196.2c0,0-2.2-3.5-6.5-3.4c-4.5,0.1-6.3,3.1-6.3,3.1L436,285c-5.6,6.2-11.7,1.2-11.7,1.2
		c-5.4-5.7-1-10.9-1-10.9l15.6-20v-0.1c1.3-1.4,2.1-3.2,2.1-5.3c0-1.9-0.6-3.6-1.8-4.9l-15.5-19.6L374.9,288l27.2,34.5l42.8,0.1
		l86.1-110.1"/>
	<path class="st2" d="M521.9,249.9l19.7,25.4c4.5,6.3-1.2,10.9-1.2,10.9c-7.6,5.1-12.2-2.5-12.2-2.5l-16.5-20.9l-19.1,24.6
		l27.6,35.3l42.5-0.1l27.2-34.9l-48.8-62.3"/>
	<path class="st2" d="M589.5,223.1c-5.7,0-10.4-4.7-10.4-10.5c0-5.8,4.6-10.5,10.4-10.5s10.4,4.7,10.4,10.5
		C600,218.4,595.3,223.1,589.5,223.1 M589.5,193.1c-10.9,0-19.7,8.7-19.7,19.5c0,10.8,8.8,19.5,19.7,19.5c10.9,0,19.8-8.7,19.8-19.5
		C609.3,201.8,600.4,193.1,589.5,193.1"/>
	<path class="st2" d="M482.3,72.4c5.7,0,10.4,4.7,10.4,10.5c0,5.8-4.7,10.5-10.4,10.5c-5.7,0-10.4-4.7-10.4-10.5
		C472,77.1,476.6,72.4,482.3,72.4 M482.3,102.4c10.9,0,19.8-8.8,19.8-19.5c0-10.8-8.8-19.5-19.8-19.5c-10.9,0-19.7,8.7-19.7,19.5
		C462.6,93.6,471.5,102.4,482.3,102.4"/>
	<path class="st2" d="M364.5,212.5c0-5.8,4.6-10.5,10.4-10.5c5.7,0,10.4,4.7,10.4,10.5c0,5.8-4.6,10.4-10.4,10.4
		C369.1,223,364.5,218.3,364.5,212.5 M394.6,212.5c0-10.8-8.9-19.5-19.8-19.5c-10.9,0-19.8,8.7-19.8,19.5c0,10.7,8.9,19.5,19.8,19.5
		C385.8,232,394.6,223.2,394.6,212.5"/>
	<path class="st2" d="M482.4,352.7c-5.7,0-10.4-4.7-10.4-10.5c0-5.8,4.6-10.5,10.4-10.5c5.7,0,10.4,4.7,10.4,10.5
		C492.8,348,488.1,352.7,482.4,352.7 M482.4,322.7c-10.9,0-19.7,8.7-19.7,19.5c0,10.8,8.8,19.5,19.7,19.5s19.8-8.7,19.8-19.5
		C502.1,331.4,493.3,322.7,482.4,322.7"/>
</g>
<g>
	<path class="st1" d="M276.2,82.8h-227v151.3c0,83.1,113.4,108.1,113.4,108.1h0.1c0,0,113.4-25.1,113.4-108.1 M270.7,88.3v145.8
		c0,17.7-5.6,34-16.5,48.5c-8.9,11.8-21.4,22.5-37.3,31.8c-24.1,14.2-48.7,20.8-54.2,22.1c-5.5-1.4-29.8-7.9-54-22
		c-15.8-9.3-28.4-20-37.4-31.8c-11-14.5-16.6-30.9-16.6-48.6V88.3H270.7z"/>
	<path class="st1" d="M190.2,131.2v-13.9h-14.3v13h-5.6v-13h-14.7v13H150v-13h-14.5v13.9l7.1,12.2c0.2,0.4,0.4,0.9,0.4,1.4l0.1,63.6
		h6.9l-0.1-22.9c0-5.4,6.1-10.3,12.9-10.3s12.9,4.9,12.9,10.3l0.1,22.9h7.1l0-24.1c0-0.1,0-0.2,0-0.3V172c0-0.1,0-0.1,0-0.2l0-8.7
		c0,0,0,0,0-0.1v-3.8v-14.5c0-0.5,0.1-1,0.4-1.4"/>
	<path class="st1" d="M137.4,209.9v-21.1l-2.6,1.5c-0.9,0.6-2.1,0.5-3-0.1l-3-2.1c0,0.1,0,0.2,0,0.2l-0.1,8.1c0,0.9-0.4,1.7-1.1,2.2
		c0.3,0.1,0.6,0.2,0.9,0.5c3.7,3,4,7.2,3.2,10.7"/>
	<path class="st1" d="M162.7,180.9c-4.3,0-7.3,3-7.3,4.7l0.1,22.9h14.6l-0.1-22.9C169.9,183.9,166.9,180.9,162.7,180.9"/>
	<path class="st1" d="M77.6,209.9c-0.8-1.8-1.4-3.9-1.8-6.4c-0.7-4.4-0.6-8.5-0.6-8.6c0-1.2,0.8-2.2,1.9-2.6l6.1-1.9l-6.9-4.9
		c-0.7-0.5-1.2-1.4-1.2-2.3v-7.7c0-1,0.6-2,1.5-2.5l2.7-1.4V169l-2.5-1c-1.1-0.4-1.7-1.4-1.7-2.6l0-9.3c0-1.5,1.3-2.8,2.8-2.8
		l8.6-0.1c-0.2-2.3-0.2-5.4,0.3-8c0.8-3.5,2.7-7.2,3.7-8.9l-0.5-3.2c-0.1-0.8,0.1-1.6,0.7-2.2c0.5-0.6,1.3-1,2.1-1h4.6
		c0.5,0,1.1,0.2,1.5,0.4l11.4,7.2h5.2c0.8,0,1.5,0.3,2,0.9c0.5,0.5,0.8,1.3,0.8,2.1l-0.4,8.9c0,0.8-0.4,1.5-0.9,1.9h3.5
		c0.8,0,1.5,0.3,2,0.9l1.6,1.6l1.2-0.9l2-4.2c0.4-1,1.4-1.6,2.5-1.6h7.4v-1.6l-7.1-12.2c-0.2-0.4-0.4-0.9-0.4-1.4v-17.4
		c0-1.5,1.3-2.8,2.8-2.8H150h5.6h14.7h5.6H193c1.5,0,2.8,1.3,2.8,2.8v17.4c0,0.5-0.1,1-0.4,1.4l-7.2,12.1l0,1.6h7.3
		c1.1,0,2.1,0.6,2.5,1.6l2.1,4.2l1.2,0.9l1.6-1.6c0.5-0.5,1.3-0.9,2-0.9h3.5c-0.6-0.5-0.9-1.2-0.9-1.9l-0.4-8.9
		c0-0.8,0.3-1.5,0.8-2.1c0.5-0.6,1.3-0.9,2-0.9h5.2l11.3-7.2c0.4-0.3,1-0.4,1.5-0.4h4.6c0.8,0,1.6,0.4,2.1,1
		c0.5,0.6,0.8,1.4,0.6,2.2l-0.4,3.2c0.9,1.7,2.9,5.5,3.6,8.9c0.6,2.6,0.5,5.7,0.4,8l8.6,0.1c1.5,0,2.8,1.3,2.8,2.8v9.3
		c0,1.1-0.7,2.1-1.7,2.6l-2.5,1v2.6l2.7,1.4c0.9,0.5,1.5,1.5,1.5,2.5v7.7c0,0.9-0.4,1.8-1.2,2.3l-6.9,4.9l6.1,1.9
		c1.1,0.3,1.9,1.4,2,2.6c0,0.2,0.1,4.2-0.6,8.6c-0.4,2.5-1,4.6-1.8,6.4h10.2c0,0,0.1,0,0.1,0V102.1H67.5v107.8"/>
	<path class="st1" d="M197,199.2c0.3-0.2,0.6-0.4,0.9-0.5c-0.7-0.5-1.1-1.3-1.1-2.1l-0.1-8.1c0-0.1,0-0.2,0-0.2l-3.1,2.1
		c-0.9,0.6-2.1,0.6-3,0.1l-2.4-1.5v21h5.6C193,206.4,193.3,202.2,197,199.2"/>
	<path class="st1" d="M234.1,267.6c-1.5,0-2.8-1.2-2.8-2.8v-18.2c0-1.4-0.8-3-2.1-4.3c-1.1-1.1-2.9-2.3-5.7-2.3
		c-4.3,0.1-6.8,3.4-7.2,6.7v18.1c0,0.8-0.3,1.5-0.8,2c-0.5,0.5-1.2,0.8-2,0.8h-16.6c-1.6,0-2.8-1.2-2.8-2.8v-18.2
		c0-1.4-0.8-3-2.1-4.3c-1.1-1.1-2.9-2.3-5.7-2.3c-1.9,0-3.6,0.7-4.8,1.9l13.6,69.5c19.2-8.5,41.9-22.4,54.2-43.9"/>
	<path class="st1" d="M189.7,313.2l-19.2-97.8H155l-19.1,97.8c0,0.2-0.1,0.3-0.1,0.4c13.3,5.5,24.1,8.2,27.1,9.2
		c3.1-1,13.8-3.7,27-9.1C189.8,313.6,189.8,313.4,189.7,313.2"/>
	<path class="st1" d="M144.1,241.9c-1.3-1.2-2.9-1.8-4.8-1.8h-0.2c-2.7,0-4.5,1.2-5.6,2.2c-1.3,1.2-2.1,2.9-2.1,4.3v18.3
		c0,1.5-1.3,2.8-2.8,2.8h-16.6c-0.7,0-1.4-0.3-1.9-0.8c-0.5-0.5-0.8-1.3-0.8-2v-18.1c-0.4-3.2-2.9-6.6-7.2-6.6H102
		c-2.7,0-4.5,1.2-5.6,2.2c-1.3,1.2-2.1,2.9-2.1,4.3v18.3c0,1.5-1.3,2.8-2.8,2.8H76.5c12.2,21.5,34.9,35.3,54,43.9"/>
	<path class="st1" d="M258.1,215.5h-81.8l4,20.5c1.8-0.9,3.8-1.5,5.9-1.5c3.7-0.1,7.2,1.3,9.7,3.8c2.4,2.3,3.8,5.4,3.8,8.3V262h11
		v-15.5c0-0.1,0-0.2,0-0.3c0.6-6.6,6.1-11.7,12.7-11.8c3.7-0.1,7.1,1.3,9.7,3.8c2.4,2.3,3.8,5.4,3.8,8.3V262h15.2
		c3.8-8.4,6.1-17.8,6.1-28.4v-18.1C258.1,215.5,258.1,215.5,258.1,215.5"/>
	<path class="st1" d="M88.8,262v-15.5c0-2.9,1.4-5.9,3.8-8.3c2.6-2.5,6-3.9,9.7-3.8c6.6,0.1,12.1,5.2,12.7,11.9c0,0.1,0,0.2,0,0.2
		V262h11v-15.5c0-2.9,1.4-5.9,3.8-8.3c2.6-2.5,6-3.9,9.8-3.8c2.1,0,4,0.6,5.8,1.5l4-20.4H67.5v18.1c0,10.6,2.3,20,6.1,28.4"/>
	<path class="st1" d="M95.3,204.1h4.5c0.3,0.6,0.5,1.2,0.7,1.9c0,0.4,0,0.8,0.1,1.1c0,1-0.2,1.9-0.4,2.8H84.4
		c-2.3-1.6-3.4-7.8-3.5-12.9l6.9-2.1c1.2-0.4,2-1.4,2-2.7v-2.7c0-0.9-0.4-1.8-1.2-2.3l-7.7-5.5v-4.6l2.7-1.4
		c0.9-0.5,1.5-1.4,1.5-2.5v-6.2c0-1.1-0.7-2.1-1.7-2.6l-2.5-1v-4.6l7.3-0.1l3.5,5.7l0,7.9l-2.4,7.6c-0.3,0.9-0.1,1.8,0.4,2.5
		c0.5,0.7,1.4,1.1,2.3,1.1h2.1c1.4,0,2.5-1,2.7-2.3c0.2-1.3,0.9-4.8,1.5-6.4c0.5-1.3,2.5-3.9,3.7-5.4c0.9-1.1,0.8-2.6,0-3.6l-9.6-11
		c-0.2-1.6-0.5-5.6,0.1-8.4c0.7-3,2.7-6.9,3.5-8.1c0.3-0.5,0.5-1.2,0.4-1.8l-0.2-1h0.7l11.3,7.2c0.4,0.3,0.9,0.4,1.5,0.4h3.1
		l-0.2,4.2l-3.7,1.3c-1.1,0.4-1.8,1.5-1.8,2.7v2.9c0,1.5,1.3,2.8,2.8,2.8h9.6l2.5,2.6c0.9,1,2.6,1.2,3.7,0.3c0,0,4.3-3.4,4.5-3.9
		l1.5-3.2h5.6v6.6v3.6c0,0-10.2,3.5-11,3.9c-0.7,0.3-1.1,3.5-0.9,4.2c0.1,0.8,0.1,1.1,1.2,1.9c0,0,3,2.3,3.9,2.7l2.9-2.8l3.9,0.3
		v9.4l-3.8,2.2l-11.7-8c-1.2-0.9-2.9-0.6-3.8,0.6l-1.8,2.4c-0.9,1.1-0.8,2.8,0.3,3.8l6.7,6.2l-0.1,5.1l-6.7,3
		c-1,0.4-1.7,1.5-1.7,2.6v1.1c0,1.6,1.3,2.8,2.8,2.8h8.1c1.4,1.8,0.9,4.2,0.3,5.8h-18.6c-0.7-0.7-0.9-1.8-1.1-3.2
		c0-0.3,0-0.7-0.1-1.1c0-1.8,0.2-3.6,0.4-4.6l4.3-5.6c0.4-0.4,0.6-1,0.6-1.6l0.1-2.7c0.1-0.9-0.4-1.9-1.2-2.4
		c-0.8-0.6-1.8-0.7-2.7-0.3l-7,2.9c-0.9,0.4-1.6,1.2-1.7,2.1l-0.4,2.8l-4.1,1.2c-1.2,0.4-2,1.4-2,2.7v1.1
		C92.6,202.9,93.8,204.1,95.3,204.1"/>
	<path class="st1" d="M230.1,204.1h-4.5c-0.4,0.6-0.5,1.2-0.6,1.9c0,0.4,0,0.8-0.1,1.1c0,1,0.2,1.9,0.4,2.8h15.9
		c2.3-1.6,3.4-7.8,3.6-12.9l-6.9-2.1c-1.2-0.4-2-1.4-2-2.7v-2.7c0-0.9,0.4-1.8,1.2-2.3l7.7-5.5v-4.6l-2.7-1.4
		c-0.9-0.5-1.5-1.4-1.5-2.5v-6.2c0-1.1,0.7-2.1,1.7-2.6l2.5-1v-4.6l-7.3-0.1l-3.5,5.7v7.9l2.4,7.6c0.2,0.9,0.1,1.8-0.4,2.5
		c-0.5,0.7-1.4,1.1-2.3,1.1h-2.1c-1.4,0-2.5-1-2.8-2.3c-0.2-1.3-0.9-4.8-1.5-6.4c-0.5-1.3-2.5-3.9-3.7-5.4c-0.9-1.1-0.9-2.6,0-3.6
		l9.6-11c0.2-1.6,0.5-5.6,0-8.4c-0.6-3-2.8-6.9-3.5-8.1c-0.4-0.5-0.5-1.2-0.4-1.8l0.1-1h-0.6l-11.4,7.2c-0.4,0.3-0.9,0.4-1.5,0.4
		h-3.1l0.2,4.2l3.6,1.3c1.1,0.4,1.8,1.5,1.8,2.7l0,2.9c0,1.5-1.2,2.8-2.8,2.8h-9.6l-2.5,2.6c-1,1-2.6,1.2-3.7,0.3
		c0,0-4.3-3.4-4.5-3.9l-1.5-3.2h-5.6v6.6v3.6c0,0,10.2,3.5,11,3.9c0.6,0.3,1,3.5,0.9,4.2c-0.1,0.8-0.1,1.1-1.2,1.9
		c0,0-2.9,2.3-3.9,2.7l-3-2.8l-3.9,0.3v9.4l3.8,2.2l11.7-8c1.2-0.9,2.9-0.6,3.8,0.6l1.8,2.4c0.9,1.1,0.8,2.8-0.3,3.8l-6.7,6.2
		l0.1,5.1l6.7,3c1,0.4,1.7,1.5,1.7,2.6v1.1c0,1.6-1.3,2.8-2.8,2.8h-8.1c-1.4,1.8-0.8,4.2-0.2,5.8h18.6c0.6-0.7,0.9-1.8,1.1-3.2
		c0-0.3,0-0.7,0.1-1.1c0-1.8-0.2-3.6-0.4-4.6l-4.3-5.6c-0.4-0.4-0.6-1-0.6-1.6l-0.1-2.7c0-0.9,0.4-1.9,1.2-2.4
		c0.8-0.6,1.8-0.7,2.7-0.3l7,2.9c0.9,0.4,1.6,1.2,1.7,2.1l0.4,2.8l4.1,1.2c1.2,0.4,2,1.4,2,2.7v1.1
		C232.9,202.9,231.7,204.1,230.1,204.1"/>
</g>
<g>
	<path class="st1" d="M669.1,179.4v-0.1c0-10.6,7.8-20,19.4-20c6.5,0,10.5,1.9,14.4,5.1l-2.8,3.3c-3-2.6-6.3-4.4-11.8-4.4
		c-8.6,0-14.7,7.3-14.7,15.9v0.1c0,9.2,5.9,16.1,15.3,16.1c4.4,0,8.5-1.7,11.2-3.9v-9.6h-11.8V178h15.9v15.4
		c-3.6,3.2-9,5.9-15.5,5.9C676.6,199.3,669.1,190.5,669.1,179.4"/>
	<path class="st1" d="M753.5,179.4v-0.1c0-8.8-6.4-16-15.3-16s-15.1,7.1-15.1,15.9v0.1c0,8.8,6.4,15.9,15.2,15.9
		C747.1,195.3,753.5,188.2,753.5,179.4 M718.5,179.4v-0.1c0-10.7,8-20,19.8-20c11.8,0,19.7,9.3,19.7,19.9v0.1c0,10.6-8,20-19.8,20
		C726.5,199.3,718.5,190.1,718.5,179.4"/>
	<path class="st1" d="M790.1,181.1h-12.2v13.6h13c5.8,0,9.5-2.6,9.5-6.9v-0.1C800.4,183.5,796.8,181.1,790.1,181.1 M798.2,170.2
		c0-3.8-3-6.3-8.6-6.3h-11.8v13.3h11.5c5.2,0,8.9-2.4,8.9-6.9L798.2,170.2L798.2,170.2z M773.6,160H790c4.4,0,7.9,1.3,10.2,3.4
		c1.6,1.7,2.5,3.7,2.5,6.2v0.1c0,5-3.1,7.6-6.1,8.9c4.6,1.4,8.3,4,8.3,9.3v0.1c0,6.6-5.6,10.5-14,10.5h-17.2L773.6,160L773.6,160z"
		/>
	<rect x="820.4" y="160" class="st1" width="4.3" height="38.7"/>
	<polyline class="st1" points="842.5,160 870.4,160 870.4,164 846.8,164 846.8,177.1 867.9,177.1 867.9,181.1 846.8,181.1 
		846.8,194.7 870.7,194.7 870.7,198.6 842.5,198.6 	"/>
	<path class="st1" d="M901.4,179.7c5.8,0,10-3,10-8v-0.1c0-4.8-3.7-7.6-9.9-7.6h-12v15.7 M885.2,160h16.6c4.8,0,8.6,1.4,11,3.9
		c1.9,1.9,3,4.6,3,7.6v0.1c0,6.4-4.4,10.2-10.5,11.3l11.9,15.8h-5.4l-11.2-15h-11.1v15h-4.3V160z"/>
	<polyline class="st1" points="931.5,160 935.6,160 959.9,191 959.9,160 964.2,160 964.2,198.6 960.7,198.6 935.7,166.9 
		935.7,198.6 931.5,198.6 	"/>
	<path class="st1" d="M1014.7,179.4v-0.1c0-8.8-6.4-16-15.3-16s-15.1,7.1-15.1,15.9v0.1c0,8.8,6.4,15.9,15.2,15.9
		C1008.4,195.3,1014.7,188.2,1014.7,179.4 M979.8,179.4v-0.1c0-10.7,8-20,19.8-20c11.8,0,19.7,9.3,19.7,19.9v0.1
		c0,10.6-8,20-19.8,20C987.7,199.3,979.8,190.1,979.8,179.4"/>
	<path class="st1" d="M1059.3,164v30.6h9.1c9.8,0,16.1-6.6,16.1-15.2v-0.1c0-8.5-6.3-15.3-16.1-15.3 M1055,160h13.4
		c12.2,0,20.6,8.3,20.6,19.2v0.1c0,10.9-8.4,19.3-20.6,19.3H1055V160z"/>
	<polyline class="st1" points="1102.8,160 1130.8,160 1130.8,164 1107.2,164 1107.2,177.1 1128.3,177.1 1128.3,181.1 1107.2,181.1 
		1107.2,194.7 1131.1,194.7 1131.1,198.6 1102.8,198.6 	"/>
	<polyline class="st1" points="1165.8,160 1170.2,160 1170.2,194.6 1192,194.6 1192,198.6 1165.8,198.6 	"/>
	<path class="st1" d="M1229.5,184.4l-8.8-19.7l-8.8,19.7 M1218.7,159.7h4.1l17.6,38.9h-4.7l-4.5-10.2h-21.1l-4.6,10.2h-4.5
		L1218.7,159.7z"/>
	<path class="st1" d="M668.2,245.7v-0.1c0-11,8.3-20,20.2-20c7.3,0,11.7,2.5,15.3,6l-5.4,6.3c-3-2.7-6-4.4-9.9-4.4
		c-6.5,0-11.2,5.4-11.2,12.1v0.1c0,6.6,4.6,12.2,11.2,12.2c4.4,0,7.1-1.8,10.1-4.5l5.4,5.5c-4,4.2-8.4,6.9-15.9,6.9
		C676.7,265.6,668.2,256.8,668.2,245.7"/>
	<rect x="710.9" y="226.3" class="st1" width="8.5" height="38.7"/>
	<path class="st1" d="M729.2,248.4v-22.1h8.5v21.9c0,6.3,3.2,9.5,8.4,9.5s8.3-3.1,8.3-9.3v-22.2h8.5v21.8c0,11.7-6.5,17.5-17,17.5
		C735.6,265.5,729.2,259.7,729.2,248.4"/>
	<path class="st1" d="M787.7,257.3c7,0,11.6-4.7,11.6-11.6v-0.1c0-6.8-4.7-11.6-11.6-11.6h-6.6v23.3 M772.6,226.3h15.1
		c12.2,0,20.5,8.3,20.5,19.2v0.1c0,10.9-8.4,19.4-20.5,19.4h-15.1V226.3z"/>
	<path class="st1" d="M836,248.8l-5.1-12.6l-5.2,12.6 M827.1,226h7.8l16.6,39h-8.9l-3.5-8.7h-16.3l-3.5,8.7h-8.7L827.1,226z"/>
	<path class="st1" d="M872.7,257.3c7,0,11.7-4.7,11.7-11.6v-0.1c0-6.8-4.7-11.6-11.7-11.6h-6.6v23.3 M857.7,226.3h15.1
		c12.2,0,20.6,8.3,20.6,19.2v0.1c0,10.9-8.4,19.4-20.6,19.4h-15.1V226.3z"/>
	<path class="st1" d="M933.1,257.3c7,0,11.7-4.7,11.7-11.6v-0.1c0-6.8-4.7-11.6-11.7-11.6h-6.6v23.3 M918,226.3h15.1
		c12.2,0,20.5,8.3,20.5,19.2v0.1c0,10.9-8.4,19.4-20.5,19.4H918V226.3z"/>
	<polyline class="st1" points="961.7,226.3 990.9,226.3 990.9,233.9 970.1,233.9 970.1,241.7 988.4,241.7 988.4,249.3 970.1,249.3 
		970.1,257.4 991.1,257.4 991.1,265 961.7,265 	"/>
	<polyline class="st1" points="1015.8,226.3 1025,226.3 1035.2,242.6 1045.3,226.3 1054.5,226.3 1054.5,265 1046,265 1046,239.7 
		1035.2,256.2 1034.9,256.2 1024.2,239.9 1024.2,265 1015.8,265 	"/>
	<path class="st1" d="M1080.8,213.5l7.2,3.1l-7.1,6.6h-6.4L1080.8,213.5z M1064.6,226.3h29.2v7.6h-20.7v7.8h18.2v7.6h-18.2v8.1h21
		v7.6h-29.4L1064.6,226.3L1064.6,226.3z"/>
	<polyline class="st1" points="1113,245.3 1100.1,226.3 1110.1,226.3 1118.2,238.8 1126.3,226.3 1136,226.3 1123.1,245.1 
		1136.6,265 1126.6,265 1117.9,251.7 1109.2,265 1099.5,265 	"/>
	<rect x="1143.1" y="226.3" class="st1" width="8.5" height="38.7"/>
	<path class="st1" d="M1159.8,245.7v-0.1c0-11,8.3-20,20.2-20c7.3,0,11.6,2.5,15.2,6l-5.4,6.3c-3-2.7-6-4.4-9.9-4.4
		c-6.5,0-11.2,5.4-11.2,12.1v0.1c0,6.6,4.6,12.2,11.2,12.2c4.4,0,7.1-1.8,10.2-4.5l5.4,5.5c-4,4.2-8.4,6.9-15.8,6.9
		C1168.3,265.6,1159.8,256.8,1159.8,245.7"/>
	<path class="st1" d="M1231.7,245.7v-0.1c0-6.6-4.8-12.2-11.7-12.2s-11.6,5.4-11.6,12.1v0.1c0,6.6,4.9,12.1,11.7,12.1
		C1227,257.8,1231.7,252.4,1231.7,245.7 M1199.5,245.7v-0.1c0-11,8.7-20,20.6-20c12,0,20.5,8.9,20.5,19.9v0.1c0,11-8.7,20-20.6,20
		C1208.1,265.6,1199.5,256.7,1199.5,245.7"/>
</g>
<g>
	<path class="st1" d="M1355.9,156.6l5.1-6c3.5,2.9,7.2,4.7,11.6,4.7c3.5,0,5.6-1.4,5.6-3.6v-0.1c0-2.2-1.3-3.3-7.8-4.9
		c-7.8-2-12.9-4.2-12.9-11.9v-0.1c0-7.1,5.7-11.8,13.6-11.8c5.7,0,10.5,1.8,14.4,4.9l-4.4,6.5c-3.4-2.4-6.9-3.8-10.1-3.8
		s-5,1.5-5,3.4v0.1c0,2.6,1.6,3.4,8.4,5.1c7.9,2.1,12.3,4.9,12.3,11.7v0.1c0,7.7-5.9,12.1-14.3,12.1
		C1366.6,162.8,1360.6,160.7,1355.9,156.6"/>
	<path class="st1" d="M1416.2,145.9l-5.2-12.6l-5.2,12.6 M1407.2,123h7.9l16.7,39.2h-8.9l-3.6-8.7h-16.4l-3.6,8.7h-8.7L1407.2,123z"
		/>
	<polyline class="st1" points="1438,123.3 1467.7,123.3 1467.7,131.1 1446.6,131.1 1446.6,139.4 1465.2,139.4 1465.2,147.2 
		1446.6,147.2 1446.6,162.2 1438,162.2 	"/>
	<path class="st1" d="M1541.7,173.8l3,1.4l-4.4,3.6h-2.5"/>
	<g>
		<path class="st1" d="M1355.7,180.6h10.3c8.7,0,14.7,5.9,14.7,13.7v0.1c0,7.8-6,13.8-14.7,13.8h-10.3V180.6z M1366,203.7
			c5.8,0,9.6-3.9,9.6-9.3v-0.1c0-5.4-3.8-9.4-9.6-9.4h-5.4v18.8L1366,203.7L1366,203.7z"/>
		<path class="st1" d="M1386.8,180.6h4.8v27.6h-4.8V180.6z"/>
		<path class="st1" d="M1399,180.6h12.3c3.5,0,6.2,1,8,2.8c1.5,1.5,2.3,3.5,2.3,5.9v0.1c0,4.5-2.7,7.3-6.6,8.4l7.4,10.4h-5.7
			l-6.8-9.6h-6.1v9.6h-4.9V180.6z M1410.9,194.2c3.5,0,5.7-1.8,5.7-4.6v-0.1c0-2.9-2.1-4.6-5.7-4.6h-7.1v9.3L1410.9,194.2
			L1410.9,194.2z"/>
		<path class="st1" d="M1427.5,180.6h20.4v4.3h-15.6v7.2h13.8v4.3h-13.8v7.4h15.8v4.3h-20.6V180.6z"/>
		<path class="st1" d="M1452.6,194.4L1452.6,194.4c0-7.9,5.9-14.3,14.2-14.3c5.1,0,8.2,1.8,10.8,4.3l-3.1,3.6
			c-2.2-2.1-4.6-3.4-7.7-3.4c-5.3,0-9.1,4.3-9.1,9.7v0.1c0,5.4,3.8,9.8,9.1,9.8c3.4,0,5.6-1.4,7.9-3.6l3.1,3.1
			c-2.9,3-6,4.9-11.2,4.9C1458.6,208.6,1452.6,202.4,1452.6,194.4z"/>
		<path class="st1" d="M1480.9,194.4L1480.9,194.4c0-7.9,5.9-14.3,14.2-14.3c5.1,0,8.2,1.8,10.8,4.3l-3.1,3.6
			c-2.2-2.1-4.6-3.4-7.7-3.4c-5.3,0-9.1,4.3-9.1,9.7v0.1c0,5.4,3.8,9.8,9.1,9.8c3.4,0,5.6-1.4,7.9-3.6l3.1,3.1
			c-2.9,3-6,4.9-11.2,4.9C1486.9,208.6,1480.9,202.4,1480.9,194.4z"/>
		<path class="st1" d="M1511.5,180.6h4.8v27.6h-4.8V180.6z"/>
		<path class="st1" d="M1522.4,194.4L1522.4,194.4c0-7.8,6-14.3,14.4-14.3s14.4,6.4,14.4,14.2v0.1c0,7.8-6,14.3-14.5,14.3
			C1528.3,208.6,1522.4,202.2,1522.4,194.4z M1546.2,194.4L1546.2,194.4c0-5.4-3.9-9.9-9.4-9.9s-9.3,4.4-9.3,9.7v0.1
			c0,5.4,3.9,9.8,9.4,9.8S1546.2,199.8,1546.2,194.4z M1539.3,172.2l4.3,1.9l-5,3.8h-3.7L1539.3,172.2z"/>
		<path class="st1" d="M1557.1,180.6h4.5l14.8,19.1v-19.1h4.8v27.6h-4.1l-15.2-19.6v19.6h-4.8L1557.1,180.6L1557.1,180.6z"/>
		<path class="st1" d="M1598.8,194.4L1598.8,194.4c0-7.8,5.9-14.3,14.2-14.3c4.8,0,7.8,1.3,10.6,3.7l-3.1,3.7
			c-2.1-1.8-4.2-2.9-7.7-2.9c-5.1,0-8.9,4.4-8.9,9.7v0.1c0,5.7,3.7,9.9,9.4,9.9c2.6,0,5-0.8,6.7-2.1V197h-7.1v-4.2h11.7v11.6
			c-2.7,2.3-6.6,4.3-11.5,4.3C1604.5,208.6,1598.8,202.5,1598.8,194.4z"/>
		<path class="st1" d="M1630.9,180.6h20.4v4.3h-15.6v7.2h13.8v4.3h-13.8v7.4h15.8v4.3h-20.6L1630.9,180.6L1630.9,180.6z"/>
		<path class="st1" d="M1657.3,180.6h4.5l14.8,19.1v-19.1h4.8v27.6h-4.1l-15.2-19.6v19.6h-4.8L1657.3,180.6L1657.3,180.6z"/>
		<path class="st1" d="M1688.4,180.6h20.4v4.3h-15.6v7.2h13.8v4.3h-13.8v7.4h15.8v4.3h-20.6L1688.4,180.6L1688.4,180.6z"/>
		<path class="st1" d="M1714.8,180.6h12.3c3.5,0,6.2,1,8,2.8c1.5,1.5,2.3,3.5,2.3,5.9v0.1c0,4.5-2.7,7.3-6.6,8.4l7.4,10.4h-5.7
			l-6.8-9.6h-6.1v9.6h-4.8L1714.8,180.6L1714.8,180.6z M1726.8,194.2c3.5,0,5.7-1.8,5.7-4.6v-0.1c0-2.9-2.1-4.6-5.7-4.6h-7.1v9.3
			L1726.8,194.2L1726.8,194.2z"/>
		<path class="st1" d="M1753.1,180.4h4.5l12.1,27.8h-5.1l-2.8-6.7h-13l-2.8,6.7h-5L1753.1,180.4z M1760,197.2l-4.8-11l-4.7,11H1760z
			"/>
		<path class="st1" d="M1774.4,180.6h4.8v23.2h14.5v4.4h-19.3L1774.4,180.6L1774.4,180.6z"/>
		<path class="st1" d="M1355.7,227.8h10.3c8.7,0,14.7,5.9,14.7,13.7v0.1c0,7.8-6,13.8-14.7,13.8h-10.3V227.8z M1366,251
			c5.8,0,9.6-3.9,9.6-9.3v-0.1c0-5.4-3.8-9.4-9.6-9.4h-5.4V251L1366,251L1366,251z"/>
		<path class="st1" d="M1386.5,227.8h20.4v4.3h-15.6v7.2h13.8v4.3h-13.8v7.4h15.8v4.3h-20.6L1386.5,227.8L1386.5,227.8z"/>
		<path class="st1" d="M1434.5,227.6h4.5l12.1,27.8h-5.1l-2.8-6.7h-13l-2.8,6.7h-5L1434.5,227.6z M1441.4,244.4l-4.8-11l-4.7,11
			H1441.4z"/>
		<path class="st1" d="M1455.8,227.8h10.3c8.7,0,14.7,5.9,14.7,13.7v0.1c0,7.8-6,13.8-14.7,13.8h-10.3V227.8z M1466.1,251
			c5.8,0,9.6-3.9,9.6-9.3v-0.1c0-5.4-3.8-9.4-9.6-9.4h-5.4V251L1466.1,251L1466.1,251z"/>
		<path class="st1" d="M1486.6,227.8h5.2l8.4,13l8.4-13h5.2v27.6h-4.8v-19.8l-8.7,13h-0.2l-8.6-12.9v19.7h-4.8L1486.6,227.8
			L1486.6,227.8z"/>
		<path class="st1" d="M1521.1,227.8h4.8v27.6h-4.8V227.8z"/>
		<path class="st1" d="M1533.3,227.8h4.5l14.8,19.1v-19.1h4.8v27.6h-4.1l-15.2-19.6v19.6h-4.8L1533.3,227.8L1533.3,227.8z"/>
		<path class="st1" d="M1564.7,227.8h4.8v27.6h-4.8V227.8z"/>
		<path class="st1" d="M1575,251.4l2.9-3.5c2.6,2.3,5.3,3.6,8.7,3.6c3,0,4.9-1.4,4.9-3.5v-0.1c0-2-1.1-3-6.2-4.2
			c-5.9-1.4-9.2-3.1-9.2-8.2v-0.1c0-4.7,3.9-8,9.4-8c4,0,7.2,1.2,10,3.5l-2.6,3.7c-2.5-1.9-5-2.8-7.5-2.8c-2.8,0-4.5,1.5-4.5,3.3
			v0.1c0,2.1,1.3,3.1,6.5,4.3c5.8,1.4,8.9,3.5,8.9,8.1v0.1c0,5.2-4.1,8.2-9.8,8.2C1582.3,255.8,1578.3,254.3,1575,251.4z"/>
		<path class="st1" d="M1608.3,232.3h-8.7v-4.5h22.4v4.5h-8.7v23.1h-4.9L1608.3,232.3L1608.3,232.3z"/>
		<path class="st1" d="M1627,227.8h12.3c3.5,0,6.2,1,8,2.8c1.5,1.5,2.3,3.5,2.3,5.9v0.1c0,4.5-2.7,7.3-6.6,8.4l7.4,10.4h-5.7
			l-6.8-9.6h-6.1v9.6h-4.9V227.8z M1638.9,241.5c3.5,0,5.7-1.8,5.7-4.6v-0.1c0-2.9-2.1-4.6-5.7-4.6h-7.1v9.3L1638.9,241.5
			L1638.9,241.5z"/>
		<path class="st1" d="M1665.2,227.6h4.5l12.1,27.8h-5.1l-2.8-6.7h-13l-2.8,6.7h-5L1665.2,227.6z M1672.2,244.4l-4.8-11l-4.7,11
			H1672.2z"/>
		<path class="st1" d="M1683.7,241.7L1683.7,241.7c0-7.9,5.9-14.3,14.2-14.3c5.1,0,8.2,1.8,10.8,4.3l-3.1,3.6
			c-2.2-2.1-4.6-3.4-7.7-3.4c-5.3,0-9.1,4.3-9.1,9.7v0.1c0,5.4,3.8,9.8,9.1,9.8c3.4,0,5.6-1.4,7.9-3.6l3.1,3.1
			c-2.9,3-6,4.9-11.2,4.9C1689.7,255.9,1683.7,249.6,1683.7,241.7z"/>
		<path class="st1" d="M1714.2,227.8h4.8v27.6h-4.8V227.8z"/>
		<path class="st1" d="M1725.2,241.7L1725.2,241.7c0-7.8,6-14.3,14.4-14.3c8.5,0,14.4,6.4,14.4,14.2v0.1c0,7.8-6,14.3-14.5,14.3
			C1731.1,255.9,1725.2,249.4,1725.2,241.7z M1749,241.7L1749,241.7c0-5.4-3.9-9.9-9.4-9.9s-9.3,4.4-9.3,9.7v0.1
			c0,5.4,3.9,9.8,9.4,9.8S1749,247,1749,241.7z M1742.1,219.4l4.3,1.9l-5,3.8h-3.7L1742.1,219.4z"/>
		<path class="st1" d="M1759.9,227.8h4.5l14.8,19.1v-19.1h4.8v27.6h-4.1l-15.2-19.6v19.6h-4.8L1759.9,227.8L1759.9,227.8z"/>
		<path class="st1" d="M1355.7,275.1h10.3c8.7,0,14.7,6,14.7,13.7v0.1c0,7.8-6,13.8-14.7,13.8h-10.3V275.1z M1366,298.2
			c5.8,0,9.6-3.9,9.6-9.3v-0.1c0-5.4-3.8-9.4-9.6-9.4h-5.4v18.8L1366,298.2L1366,298.2z"/>
		<path class="st1" d="M1386.5,275.1h20.4v4.3h-15.6v7.2h13.8v4.3h-13.8v7.4h15.8v4.3h-20.6L1386.5,275.1L1386.5,275.1z"/>
		<path class="st1" d="M1424.7,275.1h10.9c6.4,0,10.5,3.7,10.5,9.2v0.1c0,6.2-5,9.4-11,9.4h-5.5v8.9h-4.8V275.1z M1435.2,289.4
			c3.7,0,5.9-2,5.9-4.9v-0.1c0-3.2-2.3-4.9-5.9-4.9h-5.6v9.9H1435.2z"/>
		<path class="st1" d="M1451,275.1h20.4v4.3h-15.6v7.2h13.8v4.3h-13.8v7.4h15.8v4.3H1451V275.1z"/>
		<path class="st1" d="M1477.4,275.1h12.3c3.5,0,6.2,1,8,2.8c1.4,1.5,2.3,3.5,2.3,6v0.1c0,4.5-2.7,7.3-6.6,8.4l7.4,10.4h-5.7
			l-6.8-9.6h-6.1v9.6h-4.8L1477.4,275.1L1477.4,275.1z M1489.3,288.7c3.5,0,5.7-1.8,5.7-4.6v-0.1c0-3-2.1-4.6-5.7-4.6h-7.1v9.3
			L1489.3,288.7L1489.3,288.7z"/>
		<path class="st1" d="M1504,298.6l2.9-3.5c2.6,2.3,5.3,3.6,8.7,3.6c3,0,4.9-1.4,4.9-3.5v-0.1c0-2-1.1-3-6.2-4.2
			c-5.9-1.4-9.2-3.1-9.2-8.2v-0.1c0-4.7,3.9-8,9.4-8c4,0,7.2,1.2,10,3.5l-2.6,3.7c-2.5-1.9-5-2.8-7.5-2.8c-2.8,0-4.5,1.5-4.5,3.3
			v0.1c0,2.1,1.3,3.1,6.5,4.3c5.8,1.4,8.9,3.5,8.9,8.1v0.1c0,5.2-4.1,8.2-9.8,8.2C1511.3,303,1507.3,301.6,1504,298.6z"/>
		<path class="st1" d="M1529.9,288.9L1529.9,288.9c0-7.8,6-14.3,14.4-14.3c8.5,0,14.4,6.4,14.4,14.2v0.1c0,7.8-6,14.3-14.5,14.3
			S1529.9,296.7,1529.9,288.9z M1553.6,288.9L1553.6,288.9c0-5.4-3.9-9.9-9.4-9.9s-9.3,4.4-9.3,9.7v0.1c0,5.4,3.9,9.8,9.4,9.8
			S1553.6,294.3,1553.6,288.9z"/>
		<path class="st1" d="M1564.6,275.1h4.5l14.8,19.1v-19.1h4.8v27.6h-4.1l-15.2-19.6v19.6h-4.8L1564.6,275.1L1564.6,275.1z"/>
		<path class="st1" d="M1605.4,274.9h4.5l12.1,27.8h-5.1l-2.8-6.7h-13l-2.8,6.7h-5L1605.4,274.9z M1612.4,291.7l-4.8-11l-4.7,11
			H1612.4z"/>
		<path class="st1" d="M1626.8,275.1h4.8v23.2h14.5v4.4h-19.3L1626.8,275.1L1626.8,275.1z"/>
	</g>
</g>
<rect x="1860.4" y="102.4" class="st1" width="3.2" height="220.3"/>
<g>
	<path class="st2" d="M1899.4,227.7v-39.8h30.1v7.8h-21.3v8.1h18.8v7.8h-18.8v8.4h21.6v7.8L1899.4,227.7L1899.4,227.7z"/>
	<path class="st2" d="M1952.3,227.7h-15.5v-39.8h15.5c12.5,0,21.2,8.6,21.2,19.8v0.1C1973.4,219,1964.8,227.7,1952.3,227.7z
		 M1964.3,207.8c0-7.1-4.8-12-12-12h-6.8v24h6.8c7.2,0,12-4.8,12-11.9V207.8z"/>
	<path class="st2" d="M1997,228.3c-10.7,0-17.2-6-17.2-17.7v-22.8h8.8v22.5c0,6.5,3.2,9.8,8.6,9.8c5.3,0,8.6-3.2,8.6-9.6v-22.8h8.8
		v22.5C2014.5,222.4,2007.7,228.3,1997,228.3z"/>
	<path class="st2" d="M2041.3,228.4c-11.7,0-20.4-9.1-20.4-20.5v-0.1c0-11.3,8.5-20.6,20.8-20.6c7.5,0,12,2.5,15.7,6.1l-5.6,6.4
		c-3.1-2.8-6.2-4.5-10.2-4.5c-6.7,0-11.6,5.6-11.6,12.4v0.1c0,6.8,4.7,12.5,11.6,12.5c4.6,0,7.3-1.8,10.5-4.7l5.6,5.6
		C2053.5,225.6,2048.9,228.4,2041.3,228.4z"/>
	<path class="st2" d="M2093.4,227.7l-3.6-8.9h-16.8l-3.6,8.9h-8.9l17.1-40.1h8.1l17.1,40.1L2093.4,227.7L2093.4,227.7z
		 M2081.3,198.1L2076,211h10.6L2081.3,198.1z"/>
	<path class="st2" d="M2123.4,227.7h-15.5v-39.8h15.5c12.5,0,21.2,8.6,21.2,19.8v0.1C2144.6,219,2135.9,227.7,2123.4,227.7z
		 M2135.4,207.8c0-7.1-4.8-12-12-12h-6.8v24h6.8c7.2,0,12-4.8,12-11.9V207.8z"/>
</g>
</svg>
